<?xml version="1.0" standalone="no"?>
<!DOCTYPE svg PUBLIC "-//W3C//DTD SVG 20010904//EN"
 "http://www.w3.org/TR/2001/REC-SVG-20010904/DTD/svg10.dtd">
<svg version="1.0" xmlns="http://www.w3.org/2000/svg"
 width="1024.000000pt" height="1024.000000pt" viewBox="0 0 1024.000000 1024.000000"
 preserveAspectRatio="xMidYMid meet">
<metadata>
Created by potrace 1.14, written by Peter Selinger 2001-2017
</metadata>
<g transform="translate(0.000000,1024.000000) scale(0.100000,-0.100000)"
fill="#000000" stroke="none">
<path d="M4875 10160 c-1236 -63 -2379 -559 -3265 -1417 -1122 -1086 -1677
-2626 -1505 -4182 94 -845 397 -1646 889 -2345 l91 -129 3 1242 2 1241 995 0
995 0 0 -2034 0 -2034 101 -41 c292 -122 556 -203 927 -286 l22 -5 0 2890 0
2890 995 0 995 0 2 -2889 3 -2888 141 32 c272 64 627 180 838 274 l66 30 0
3491 0 3490 995 0 995 0 0 -2697 0 -2697 47 64 c435 598 745 1321 877 2050 90
498 104 1043 40 1560 -105 840 -440 1667 -959 2365 -276 372 -659 755 -1030
1030 -769 572 -1671 911 -2615 984 -194 15 -469 20 -645 11z"/>
</g>
</svg>
